<svg width="153" height="22" viewBox="0 0 153 22" fill="none" xmlns="http://www.w3.org/2000/svg">
    <path d="M28.1094 0L28.5029 0.108982C30.2219 0.536037 31.8208 1.3532 33.177 2.49779C34.3013 3.45125 35.217 4.6285 35.8664 5.95533C35.8789 5.97599 35.8855 5.9997 35.8855 6.02388C35.8855 6.04806 35.8789 6.07178 35.8664 6.09244C35.5255 6.70826 35.1077 7.27771 34.6231 7.78693C33.6524 8.80335 32.435 9.54792 31.0909 9.94723C30.406 10.1531 29.6967 10.2654 28.982 10.2812C27.6526 10.3172 26.335 10.0213 25.1472 9.4199C25.114 9.40408 25.0843 9.38474 25.0493 9.36716C25.2154 9.15096 25.3798 8.94706 25.5337 8.73437C26.6752 7.18718 27.4611 5.40478 27.8349 3.51554C28.0261 2.55292 28.1106 1.57195 28.0867 0.590611C28.0867 0.395499 28.0657 0.202144 28.0535 0.00703109L28.1094 0Z" fill="#16407F"/>
    <path d="M8.95105 0C8.94056 0.297063 8.91782 0.594127 8.91782 0.89119C8.90131 3.94762 9.95346 6.91276 11.8905 9.26873L11.9639 9.36189C11.9412 9.37595 11.922 9.39002 11.901 9.40056C10.8255 9.95509 9.63841 10.2557 8.42995 10.2794C6.32318 10.3449 4.27627 9.56948 2.7364 8.12266C2.1006 7.53856 1.5632 6.85471 1.14514 6.09771C1.13102 6.07505 1.12354 6.04886 1.12354 6.02213C1.12354 5.99539 1.13102 5.9692 1.14514 5.94654C2.15888 3.89119 3.79467 2.21177 5.81749 1.14958C6.77997 0.640602 7.80465 0.260618 8.86536 0.0193355C8.88347 0.0147485 8.90106 0.00826803 8.91782 0L8.95105 0Z" fill="#16407F"/>
    <path d="M0 10.6293C0.00723553 10.5945 0.0119112 10.5592 0.0139891 10.5238C0.046999 9.33561 0.272013 8.16074 0.680219 7.04517C1.9235 8.91192 3.60219 10.1951 5.75126 10.8191C7.83515 11.4309 10.0697 11.2559 12.0341 10.3269C12.0026 10.5027 11.9677 10.6556 11.9449 10.8191C11.8302 11.6014 11.961 12.4002 12.3191 13.1042C12.3371 13.1297 12.3445 13.1613 12.3396 13.1922C12.3347 13.2231 12.3179 13.2508 12.2929 13.2694C11.1113 14.5195 9.55958 15.3525 7.86886 15.6442C5.86057 16.0129 3.78809 15.5926 2.07913 14.47C1.39312 14.0284 0.779106 13.4829 0.258798 12.8528C0.217128 12.8023 0.189389 12.7417 0.178361 12.6771C0.0803441 12.1481 0.0253717 11.6119 0.0139891 11.074C0.0115494 11.0496 0.00686638 11.0254 0 11.0019L0 10.6293Z" fill="#16407F"/>
    <path d="M19.0952 17.1612C19.5681 16.5086 19.9719 15.8082 20.3 15.0712C21.8004 15.4456 23.0769 15.0712 24.1365 13.948C25.796 15.588 27.7737 16.5179 30.1046 16.6321C32.4356 16.7464 34.4919 16.0239 36.3158 14.5456C36.2983 14.5913 36.2878 14.6247 36.2756 14.6564C35.2509 17.1612 33.4777 18.9084 30.9912 19.9402C29.9727 20.3609 28.899 20.6309 27.8034 20.7418C25.1 21.0301 22.7044 20.2619 20.5711 18.6043C20.0498 18.1952 19.5717 17.7335 19.1442 17.2262L19.0952 17.1612Z" fill="#16407F"/>
    <path d="M0.699219 14.5473C2.52654 16.0273 4.58818 16.7497 6.91911 16.632C9.25004 16.5142 11.2225 15.5773 12.882 13.9443C13.3467 14.4799 13.9544 14.8704 14.6331 15.0695C15.3119 15.2685 16.0331 15.2679 16.7115 15.0676C17.0426 15.8101 17.4481 16.5168 17.9215 17.1769C17.7659 17.3527 17.6155 17.5284 17.4564 17.6884C15.8329 19.3866 13.6735 20.4657 11.3467 20.7416C10.4524 20.8458 9.54784 20.8203 8.66075 20.6661C7.62243 20.5099 6.60966 20.2143 5.6496 19.7872C4.5343 19.2859 3.52514 18.574 2.67693 17.6901C1.83257 16.8069 1.16842 15.7661 0.721951 14.6264C0.714956 14.607 0.709711 14.5894 0.699219 14.5473Z" fill="#16407F"/>
    <path d="M36.3368 7.03125C36.419 7.2914 36.5029 7.53573 36.5746 7.78358C36.8292 8.67319 36.9708 9.59158 36.996 10.5169C37.0163 11.2448 36.9618 11.9729 36.8334 12.6895C36.825 12.7404 36.8026 12.7879 36.7687 12.8266C36.038 13.7092 35.1298 14.4262 34.1037 14.9307C33.0776 15.4352 31.9569 15.7157 30.8153 15.7537C29.6737 15.7917 28.537 15.5864 27.4799 15.1513C26.4228 14.7162 25.4694 14.0611 24.6821 13.2292L24.6489 13.1922C25.1191 12.3111 25.2325 11.2815 24.9654 10.3183C26.9329 11.2516 29.1724 11.428 31.2605 10.814C33.4096 10.1952 35.0813 8.91207 36.3368 7.03125Z" fill="#16407F"/>
    <path d="M26.3763 4.69853C26.2889 4.94814 26.2014 5.1995 26.1105 5.44735C25.6319 6.74995 24.9449 7.96531 24.0769 9.0455C23.0659 10.2818 21.7863 11.2686 20.3365 11.93C19.7706 12.1898 19.1861 12.4066 18.5879 12.5786C18.5437 12.59 18.4974 12.59 18.4532 12.5786C16.9488 12.1694 15.547 11.4465 14.3387 10.457C13.2094 9.50553 12.2818 8.33574 11.6108 7.01703C11.2324 6.2975 10.9165 5.54649 10.6666 4.77236C10.6666 4.74775 10.6491 4.72139 10.6421 4.69502L10.6701 4.67041C10.6868 4.7028 10.7067 4.73342 10.7295 4.76181C11.45 5.47371 12.1634 6.1944 12.8943 6.89399C13.9562 7.93403 15.1291 8.85305 16.3916 9.63436C17.0502 10.0285 17.7376 10.3717 18.448 10.6609C18.492 10.6775 18.5404 10.6775 18.5844 10.6609C20.0549 10.0539 21.4243 9.22395 22.6447 8.20002C23.4683 7.52327 24.2447 6.7938 25.0019 6.04499C25.439 5.61258 25.8762 5.17665 26.3081 4.74248L26.3658 4.68799L26.3763 4.69853Z" fill="#16407F"/>
    <path d="M18.5043 18.0276C19.2852 18.8462 20.1792 19.5476 21.1587 20.1105C22.1322 20.6711 23.182 21.0857 24.2748 21.341V21.3656C23.8796 21.45 23.4844 21.5414 23.0874 21.6205C22.0278 21.82 20.9545 21.9376 19.8769 21.972C18.661 22.0218 17.4433 22.0048 16.2293 21.9211C15.0539 21.8458 13.8885 21.6563 12.7495 21.355C13.8413 21.0965 14.8906 20.6821 15.8656 20.1246C16.8416 19.5578 17.7304 18.8514 18.5043 18.0276Z" fill="#16407F"/>
    <path d="M21.8386 7.65687C21.6095 7.83265 21.391 7.99612 21.1654 8.15783C20.3626 8.73801 19.5017 9.23228 18.5966 9.6326C18.5673 9.64731 18.535 9.65496 18.5022 9.65496C18.4694 9.65496 18.4371 9.64731 18.4078 9.6326C17.2777 9.12887 16.2159 8.48268 15.248 7.7096L15.1851 7.65511C16.848 5.95007 19.8994 5.76023 21.8386 7.65687Z" fill="#16407F"/>
    <path d="M19.2734 13.368C20.1546 13.0643 21.0049 12.6764 21.8125 12.2096C22.6116 11.7349 23.3498 11.1635 24.0105 10.5081C24.3602 11.2867 24.2221 12.7932 23.0435 13.7002C22.4856 14.1237 21.7913 14.3242 21.0949 14.2628C20.3985 14.2014 19.7495 13.8826 19.2734 13.368Z" fill="#16407F"/>
    <path d="M17.7453 13.3592C17.3143 13.8481 16.7246 14.1674 16.0812 14.2601C15.4379 14.3528 14.7827 14.213 14.2323 13.8654C12.9139 13.0533 12.5816 11.5803 12.9943 10.5081C14.3291 11.8257 15.9581 12.8032 17.7453 13.3592Z" fill="#16407F"/>
    <path d="M18.5092 13.7651L19.0723 14.3311C19.1807 14.4401 19.2926 14.5491 19.3975 14.6616C19.4079 14.6741 19.4155 14.6888 19.4198 14.7046C19.424 14.7204 19.4247 14.7369 19.422 14.753C19.1694 15.3244 18.8637 15.8705 18.5092 16.3842C18.4917 16.3649 18.4795 16.3491 18.4672 16.3332C18.1312 15.8407 17.8387 15.3196 17.5929 14.7759C17.5737 14.7354 17.5614 14.7038 17.6034 14.6634C17.8954 14.3733 18.1839 14.0815 18.4777 13.7845L18.5092 13.7651Z" fill="#16407F"/>
    <path d="M55.6735 18L56.6451 15.0149H61.3688L62.3404 18H65.3063L60.7935 4.90909H57.2267L52.7076 18H55.6735ZM57.3482 12.8544L58.959 7.90057H59.0613L60.6721 12.8544H57.3482ZM71.4379 8.18182H69.5906V5.82955H66.8675V8.18182H65.5252V10.2273H66.8675V15.3409C66.8548 17.2649 68.1651 18.2173 70.1403 18.1342C70.8434 18.1087 71.342 17.968 71.6168 17.8786L71.1886 15.8523C71.0543 15.8778 70.7667 15.9418 70.511 15.9418C69.9677 15.9418 69.5906 15.7372 69.5906 14.983V10.2273H71.4379V8.18182ZM76.1456 12.3239C76.152 11.0582 76.9254 10.3168 78.0376 10.3168C79.1435 10.3168 79.7955 11.0263 79.7891 12.2344V18H82.5121V11.7486C82.5185 9.44744 81.1634 8.05398 79.1179 8.05398C77.6286 8.05398 76.6314 8.7571 76.1839 9.91406H76.0689V4.90909H73.4226V18H76.1456V12.3239ZM89.1294 18.1918C91.5584 18.1918 93.1948 17.0092 93.5783 15.1875L91.0598 15.0213C90.785 15.7692 90.0819 16.1591 89.1742 16.1591C87.8127 16.1591 86.9498 15.2578 86.9498 13.794V13.7876H93.6358V13.0398C93.6358 9.70312 91.6159 8.05398 89.0208 8.05398C86.1316 8.05398 84.2587 10.1058 84.2587 13.1357C84.2587 16.2486 86.106 18.1918 89.1294 18.1918ZM86.9498 12.1001C87.0073 10.9815 87.8574 10.0866 89.0655 10.0866C90.248 10.0866 91.0662 10.9304 91.0726 12.1001H86.9498ZM98.1358 12.3239C98.1422 11.0582 98.8965 10.3168 99.9959 10.3168C101.089 10.3168 101.747 11.0327 101.741 12.2344V18H104.464V11.7486C104.464 9.46023 103.122 8.05398 101.076 8.05398C99.6188 8.05398 98.5641 8.76989 98.123 9.91406H98.008V8.18182H95.4128V18H98.1358V12.3239ZM109.41 18.1854C110.861 18.1854 111.8 17.5526 112.28 16.6385H112.357V18H114.939V11.3778C114.939 9.03835 112.957 8.05398 110.771 8.05398C108.419 8.05398 106.872 9.17898 106.495 10.9688L109.013 11.1733C109.199 10.5213 109.781 10.0419 110.759 10.0419C111.685 10.0419 112.216 10.5085 112.216 11.3139V11.3523C112.216 11.9851 111.545 12.0682 109.838 12.2344C107.895 12.4134 106.15 13.0653 106.15 15.2578C106.15 17.201 107.537 18.1854 109.41 18.1854ZM110.19 16.3061C109.352 16.3061 108.751 15.9162 108.751 15.1683C108.751 14.4013 109.384 14.0241 110.343 13.8899C110.938 13.8068 111.909 13.6662 112.235 13.4489V14.4908C112.235 15.5199 111.385 16.3061 110.19 16.3061ZM123.525 18L124.497 15.0149H129.22L130.192 18H133.158L128.645 4.90909H125.078L120.559 18H123.525ZM125.2 12.8544L126.811 7.90057H126.913L128.524 12.8544H125.2ZM137.501 4.90909H134.733V18H137.501V4.90909ZM151.808 11.4545C151.808 7.17188 149.149 4.73011 145.678 4.73011C142.188 4.73011 139.548 7.17188 139.548 11.4545C139.548 15.718 142.188 18.179 145.678 18.179C149.149 18.179 151.808 15.7372 151.808 11.4545ZM149.002 11.4545C149.002 14.2287 147.685 15.7308 145.678 15.7308C143.665 15.7308 142.354 14.2287 142.354 11.4545C142.354 8.6804 143.665 7.17827 145.678 7.17827C147.685 7.17827 149.002 8.6804 149.002 11.4545Z" fill="black"/>
</svg>
